<?xml version="1.0" standalone="no"?>
<!DOCTYPE svg PUBLIC "-//W3C//DTD SVG 1.1//EN" "http://www.w3.org/Graphics/SVG/1.1/DTD/svg11.dtd">
<svg xmlns="http://www.w3.org/2000/svg" id="Layer_1" data-name="Layer 1" viewBox="0 0 52.54 21.41" width="52.540000915527344" height="21.40999984741211"><defs><style>.cls-1{fill:#00b3dd;}</style></defs><path class="cls-1" d="M44.93,3.05a7.65,7.65,0,0,0-7.61,6.58.08.08,0,0,1-.16,0,7.64,7.64,0,0,0-14-3.12h0a.16.16,0,0,1-.3-.06l-.43-3.26a.12.12,0,0,0-.14-.11,7.64,7.64,0,0,0-6.92,6.43.05.05,0,0,1-.05.05.06.06,0,0,1-.06-.06V.15A.15.15,0,0,0,15.15,0H11.63a.15.15,0,0,0-.15.15V4.3a.09.09,0,0,1-.15.07,6.44,6.44,0,0,0-3.9-1.32A7.51,7.51,0,0,0,0,10.13,7.65,7.65,0,0,0,15.18,12a.07.07,0,0,1,.07-.06.07.07,0,0,1,.06.07v5.83a.15.15,0,0,0,.15.15H19a.15.15,0,0,0,.15-.15V10.7a3.8,3.8,0,0,1,3.53-3.81.16.16,0,0,1,.16.25h0a7.57,7.57,0,0,0-.88,3.79,7.65,7.65,0,0,0,15.14,1.3.07.07,0,0,1,.07-.07.08.08,0,0,1,.09.08v9a.15.15,0,0,0,.15.15h3.52a.16.16,0,0,0,.15-.16V17.11a.1.1,0,0,1,.15-.08,6.35,6.35,0,0,0,3.86,1.33,7.48,7.48,0,0,0,7.47-7.72A7.67,7.67,0,0,0,44.93,3.05ZM11.48,10.7a3.83,3.83,0,1,1-7.65,0h0a3.83,3.83,0,0,1,7.65,0Zm18.11,3.83a3.83,3.83,0,1,1,3.82-3.83A3.82,3.82,0,0,1,29.59,14.53ZM48.71,10.7a3.83,3.83,0,1,1-7.65,0h0a3.83,3.83,0,0,1,7.65,0Z"/></svg>